<svg id="Layer_2" height="512" viewBox="0 0 512 512" width="512" xmlns="http://www.w3.org/2000/svg" data-name="Layer 2"><g id="Icon"><path id="Close_Double_Quotation_Ditto_mark" d="m362 0h-212c-82.84 0-150 67.16-150 150v212c0 82.84 67.16 150 150 150h212c82.84 0 150-67.16 150-150v-212c0-82.84-67.16-150-150-150zm-115.95 260.41c-2.18 6.84-4.92 13.6-8.2 20.3s-6.94 12.92-10.97 18.66c-4.04 5.75-7.9 10.33-11.59 13.74l-41.63-4.92c4.38-3.41 8.41-7.24 12.1-11.48s7.11-8.68 10.25-13.33c-5.05-.41-9.67-1.78-13.84-4.1-4.17-2.33-7.76-5.34-10.76-9.03-3.01-3.69-5.34-7.96-6.98-12.81-1.64-4.86-2.46-10.09-2.46-15.69 0-4.65.75-9.47 2.26-14.46 1.5-4.99 3.93-9.6 7.28-13.84s7.82-7.73 13.43-10.46c5.6-2.74 12.51-4.1 20.71-4.1 7.39 0 13.85 1.02 19.38 3.07 5.54 2.05 10.08 4.96 13.64 8.72 3.55 3.76 6.22 8.27 8 13.53 1.77 5.27 2.66 11.11 2.66 17.54 0 5.6-1.09 11.82-3.28 18.66zm100.7 0c-2.19 6.84-4.92 13.6-8.21 20.3-3.28 6.7-6.94 12.92-10.97 18.66-4.03 5.75-7.89 10.33-11.58 13.74l-41.43-4.92c4.37-3.41 8.37-7.24 12-11.48 3.62-4.24 7-8.68 10.15-13.33-5.06-.41-9.68-1.78-13.84-4.1-4.18-2.33-7.77-5.34-10.77-9.03-3.01-3.69-5.33-7.96-6.97-12.81-1.64-4.86-2.46-10.09-2.46-15.69 0-4.65.75-9.47 2.25-14.46s3.96-9.6 7.38-13.84 7.9-7.73 13.44-10.46c5.53-2.74 12.4-4.1 20.61-4.1 14.9 0 25.9 3.93 33.01 11.79s10.67 18.22 10.67 31.07c0 5.6-1.1 11.82-3.28 18.66z" data-name="Close Double Quotation, Ditto mark"/></g></svg>