<svg viewBox="0 0 512 512" xmlns="http://www.w3.org/2000/svg"><g id="Layer_2" data-name="Layer 2"><g id="solid_gradiant_copy_2" data-name="solid_gradiant copy 2"><g id="_24" data-name="24"><rect id="background" fill="#ff1f5e" height="512" rx="110.34" width="512"/><path d="m182.47 396.92q0-17.84-1.19-36.66t-3.57-38.65q-2-20.22-3.17-33.9t-1.19-20.81q0-5.55 4.16-17.24t12.49-29.53q1.19-2 9.51-4.37t20.61-4.55q12.28-2.18 25.77-3.77t25.17-2.58q11.7-1 18-1l-7.53-8.32q-11.1-12.28-19.23-23.19t-17.64-10.9q-9.12 0-17.84 6.73t-18.23 20.22l-16.25-8.32q11.49-29.34 27.55-47.18t32.3-17.83q9.53 0 18.24 7.13t20.61 24.18a327 327 0 0 0 24 31.52 136.9 136.9 0 0 0 23.58 21.6l-18.23 47.17q-16.26 0-34.69 1.19t-35.68 3.37q-17.24 2.19-30.72 4.76a169.94 169.94 0 0 0 -20.61 5q2.37 11.09 4.76 22.19t4.75 22.2q3.57 17 7.14 34.49t7.13 34.89a204.5 204.5 0 0 1 -20.21 13.08 132.88 132.88 0 0 1 -19.79 9.08z" fill="#fff"/></g></g></g></svg>